<svg xmlns="http://www.w3.org/2000/svg" width="26" height="79"><defs><linearGradient id="a" y1=".5" x2="1" y2=".5" gradientUnits="objectBoundingBox"><stop offset="0" stop-color="#3e3e3e"/><stop offset=".5" stop-color="#4d4d4d"/><stop offset="1" stop-color="#3e3e3e"/></linearGradient></defs><path data-name="Контур 10004" d="M25.384 5.778.235.635" fill="none" stroke="#3a3a3a"/><path data-name="Контур 10023" d="M25.384 43.906.235 38.763" fill="none" stroke="#3a3a3a"/><path data-name="Контур 10007" d="M25.384 13.404.235 8.261" fill="none" stroke="#3a3a3a"/><path data-name="Контур 10021" d="M25.384 51.532.235 46.389" fill="none" stroke="#3a3a3a"/><path data-name="Контур 10009" d="M25.384 21.029.235 15.886" fill="none" stroke="#3a3a3a"/><path data-name="Контур 10019" d="M25.384 59.157.235 54.014" fill="none" stroke="#3a3a3a"/><path data-name="Контур 10011" d="M25.384 28.655.235 23.512" fill="none" stroke="#3a3a3a"/><path data-name="Контур 10017" d="M25.384 66.783.235 61.64" fill="none" stroke="#3a3a3a"/><path data-name="Контур 10013" d="M25.384 36.28.235 31.137" fill="none" stroke="#3a3a3a"/><path data-name="Контур 10015" d="M25.384 74.408.235 69.265" fill="none" stroke="#3a3a3a"/><path data-name="Контур 10005" d="M25.384 9.591.235 4.448" fill="none" stroke="#3a3a3a"/><path data-name="Контур 10022" d="M25.384 47.719.235 42.576" fill="none" stroke="#3a3a3a"/><path data-name="Контур 10006" d="M25.384 17.216.235 12.073" fill="none" stroke="#3a3a3a"/><path data-name="Контур 10020" d="M25.384 55.344.235 50.201" fill="none" stroke="#3a3a3a"/><path data-name="Контур 10008" d="M25.384 24.842.235 19.699" fill="none" stroke="#3a3a3a"/><path data-name="Контур 10018" d="M25.384 62.97.235 57.827" fill="none" stroke="#3a3a3a"/><path data-name="Контур 10010" d="M25.384 32.468.235 27.325" fill="none" stroke="#3a3a3a"/><path data-name="Контур 10016" d="M25.384 70.596.235 65.453" fill="none" stroke="#3a3a3a"/><path data-name="Контур 10012" d="M25.384 40.093.235 34.95" fill="none" stroke="#3a3a3a"/><path data-name="Контур 10014" d="M25.384 78.221.235 73.078" fill="none" stroke="#3a3a3a"/><path data-name="Прямоугольник 2250" transform="translate(0 7)" fill="url(#a)" d="M0 0h26v2H0z"/><path data-name="Прямоугольник 2268" transform="translate(0 46)" fill="url(#a)" d="M0 0h26v2H0z"/><path data-name="Прямоугольник 2251" transform="translate(0 15)" fill="url(#a)" d="M0 0h26v2H0z"/><path data-name="Прямоугольник 2266" transform="translate(0 55)" fill="url(#a)" d="M0 0h26v2H0z"/><path data-name="Прямоугольник 2253" transform="translate(0 22)" fill="url(#a)" d="M0 0h26v2H0z"/><path data-name="Прямоугольник 2264" transform="translate(0 62)" fill="url(#a)" d="M0 0h26v1H0z"/><path data-name="Прямоугольник 2255" transform="translate(0 31)" fill="url(#a)" d="M0 0h26v2H0z"/><path data-name="Прямоугольник 2262" transform="translate(0 70)" fill="url(#a)" d="M0 0h26v2H0z"/><path data-name="Прямоугольник 2257" transform="translate(0 39)" fill="url(#a)" d="M0 0h26v2H0z"/><path data-name="Прямоугольник 2260" transform="translate(0 77)" fill="url(#a)" d="M0 0h26v2H0z"/><path data-name="Прямоугольник 2249" transform="translate(0 3)" fill="url(#a)" d="M0 0h26v2H0z"/><path data-name="Прямоугольник 2269" transform="translate(0 43)" fill="url(#a)" d="M0 0h26v2H0z"/><path data-name="Прямоугольник 2252" transform="translate(0 12)" fill="url(#a)" d="M0 0h26v2H0z"/><path data-name="Прямоугольник 2267" transform="translate(0 51)" fill="url(#a)" d="M0 0h26v2H0z"/><path data-name="Прямоугольник 2254" transform="translate(0 19)" fill="url(#a)" d="M0 0h26v2H0z"/><path data-name="Прямоугольник 2265" transform="translate(0 58)" fill="url(#a)" d="M0 0h26v2H0z"/><path data-name="Прямоугольник 2256" transform="translate(0 26)" fill="url(#a)" d="M0 0h26v1H0z"/><path data-name="Прямоугольник 2263" transform="translate(0 65)" fill="url(#a)" d="M0 0h26v2H0z"/><path data-name="Прямоугольник 2258" transform="translate(0 34)" fill="url(#a)" d="M0 0h26v2H0z"/><path data-name="Прямоугольник 2261" transform="translate(0 74)" fill="url(#a)" d="M0 0h26v1H0z"/><path data-name="Прямоугольник 2248" fill="url(#a)" d="M0 0h26v2H0z"/></svg>